# xmcd
#
# Track frame offsets: 
#        150
#        23050
#        44215
#        64327
#        82140
#        104415
#        127752
#        151640
#        171390
#        193940
#        215840
#        232265
#
# Disc length: 3326 seconds
#
# Revision: 3
# Processed by: cddbd v1.5.2PL0 Copyright (c) Steve Scherf et al.
# Submitted via: ExactAudioCopy v0.95a5
#
DISCID=b30cfc0c
DTITLE=古璇 - 璇曲蔓地3原點XRCD
DYEAR=2004
DGENRE=
TTITLE0=愛的箴言
TTITLE1=原點
TTITLE2=城市足印
TTITLE3=跟著感覺走
TTITLE4=梅花三弄
TTITLE5=牽手
TTITLE6=女人花
TTITLE7=今宵多珍重
TTITLE8=你怎麼捨得我難過
TTITLE9=城裡的月光
TTITLE10=思念
TTITLE11=把根留住
EXTD=
EXTT0=
EXTT1=
EXTT2=
EXTT3=
EXTT4=
EXTT5=
EXTT6=
EXTT7=
EXTT8=
EXTT9=
EXTT10=
EXTT11=
PLAYORDER=
